<svg width="37" height="36" viewBox="0 0 37 36" fill="none" xmlns="http://www.w3.org/2000/svg">
<path d="M21.7366 19.0013C21.7691 22.4572 24.8087 23.6072 24.8424 23.6219C24.8167 23.703 24.3567 25.2608 23.2409 26.8699C22.2765 28.261 21.2754 29.6471 19.6985 29.6758C18.1491 29.7039 17.6508 28.769 15.8793 28.769C14.1084 28.769 13.5548 29.6471 12.0881 29.7039C10.566 29.7608 9.40689 28.1996 8.43437 26.8136C6.44716 23.9784 4.92852 18.8019 6.96767 15.3078C7.98068 13.5726 9.791 12.4738 11.7559 12.4456C13.2506 12.4174 14.6614 13.4379 15.5751 13.4379C16.4883 13.4379 18.2027 12.2107 20.005 12.3909C20.7595 12.4219 22.8774 12.6917 24.2374 14.6562C24.1278 14.7232 21.7103 16.1121 21.7366 19.0013V19.0013ZM18.8245 10.5152C19.6326 9.54989 20.1765 8.20609 20.0281 6.86902C18.8633 6.91522 17.4548 7.63501 16.6193 8.59979C15.8705 9.45414 15.2148 10.8216 15.3917 12.1322C16.69 12.2313 18.0164 11.4811 18.8245 10.5152" fill="black"/>
</svg>
