<svg width="40" height="34" viewBox="0 0 40 34" fill="none" xmlns="http://www.w3.org/2000/svg">
<g clip-path="url(#clip0_257_4793)">
<path d="M11.1097 19.4568L10.3857 22.1597L7.73943 22.2157C6.94858 20.7488 6.5 19.0706 6.5 17.2871C6.5 15.5626 6.91941 13.9363 7.66285 12.5043H7.66342L10.0193 12.9362L11.0514 15.278C10.8354 15.9077 10.7176 16.5837 10.7176 17.2871C10.7177 18.0506 10.856 18.782 11.1097 19.4568Z" fill="#FBBB00"/>
<path d="M27.1184 15.3444C27.2379 15.9735 27.3001 16.6232 27.3001 17.2872C27.3001 18.0318 27.2219 18.7581 27.0727 19.4587C26.5665 21.8427 25.2436 23.9244 23.411 25.3975L23.4105 25.3969L20.4431 25.2455L20.0231 22.6238C21.2391 21.9107 22.1894 20.7947 22.6899 19.4587H17.1288V15.3444H22.7711H27.1184Z" fill="#518EF8"/>
<path d="M23.4102 25.397L23.4107 25.3976C21.6285 26.8301 19.3644 27.6873 16.8999 27.6873C12.9393 27.6873 9.4959 25.4736 7.73932 22.2159L11.1096 19.457C11.9879 21.801 14.249 23.4696 16.8999 23.4696C18.0393 23.4696 19.1068 23.1616 20.0227 22.6239L23.4102 25.397Z" fill="#28B446"/>
<path d="M23.5383 9.28148L20.1692 12.0398C19.2212 11.4472 18.1006 11.1049 16.9001 11.1049C14.1892 11.1049 11.8857 12.85 11.0515 15.2781L7.66347 12.5043H7.6629C9.39377 9.1672 12.8806 6.88721 16.9001 6.88721C19.4235 6.88721 21.7372 7.78608 23.5383 9.28148Z" fill="#F14336"/>
</g>
<defs>
<clipPath id="clip0_257_4793">
<rect width="20.8" height="20.8" fill="white" transform="translate(6.5 6.88721)"/>
</clipPath>
</defs>
</svg>
