<svg width="24" height="24" viewBox="0 0 24 24" fill="none" xmlns="http://www.w3.org/2000/svg">
<path d="M19.725 1.5V15.15H14.7V6.52501C14.7 5.1923 15.2294 3.91415 16.1718 2.97178C17.1142 2.02941 18.3923 1.5 19.725 1.5Z" stroke="#929F92" stroke-width="1.4" stroke-linecap="round" stroke-linejoin="round"/>
<path d="M16.8 15.075H19.725V21.3749C19.725 21.7529 19.5749 22.1153 19.3076 22.3826C19.0404 22.6498 18.6779 22.7999 18.3 22.7999H18.225C17.8471 22.7999 17.4846 22.6498 17.2174 22.3826C16.9501 22.1153 16.8 21.7529 16.8 21.3749V15.075Z" stroke="#929F92" stroke-width="1.4" stroke-linecap="round" stroke-linejoin="round"/>
<path d="M7.2 22.8002C6.7425 22.8002 6.30374 22.6185 5.98024 22.295C5.65674 21.9715 5.47501 21.5327 5.47501 21.0752L6.22501 11.7002H8.24999L8.99999 21.0752C9.00021 21.3082 8.95325 21.5388 8.86191 21.7531C8.77057 21.9675 8.63674 22.1611 8.46853 22.3223C8.30032 22.4835 8.10121 22.6089 7.88319 22.6911C7.66517 22.7732 7.43276 22.8103 7.2 22.8002Z" stroke="#929F92" stroke-width="1.4" stroke-linecap="round" stroke-linejoin="round"/>
<path d="M10.575 8.3252C10.4534 9.1433 10.0419 9.8905 9.41553 10.4306C8.78917 10.9708 7.98961 11.2679 7.16251 11.2679C6.33542 11.2679 5.53584 10.9708 4.90947 10.4306C4.2831 9.8905 3.87162 9.1433 3.75 8.3252H10.575Z" stroke="#929F92" stroke-width="1.4" stroke-linecap="round" stroke-linejoin="round"/>
<path d="M3.75 2.1001V8.32511" stroke="#929F92" stroke-width="1.4" stroke-linecap="round" stroke-linejoin="round"/>
<path d="M7.125 2.1001V8.1751" stroke="#929F92" stroke-width="1.4" stroke-linecap="round" stroke-linejoin="round"/>
<path d="M10.575 2.1001V8.32511" stroke="#929F92" stroke-width="1.4" stroke-linecap="round" stroke-linejoin="round"/>
</svg>
