<svg width="17" height="18" viewBox="0 0 17 18" fill="none" xmlns="http://www.w3.org/2000/svg">
<path d="M16.4166 8.08335V2.41669C16.4166 1.16669 15.8833 0.666687 14.5583 0.666687H11.1916C9.86658 0.666687 9.33325 1.16669 9.33325 2.41669V8.08335C9.33325 9.33335 9.86658 9.83335 11.1916 9.83335H14.5583C15.8833 9.83335 16.4166 9.33335 16.4166 8.08335Z" fill="white"/>
<path d="M7.66658 9.91669V15.5834C7.66658 16.8334 7.13325 17.3334 5.80825 17.3334H2.44159C1.11659 17.3334 0.583252 16.8334 0.583252 15.5834V9.91669C0.583252 8.66669 1.11659 8.16669 2.44159 8.16669H5.80825C7.13325 8.16669 7.66658 8.66669 7.66658 9.91669Z" fill="white"/>
<path d="M16.4166 15.5834V13.25C16.4166 12 15.8833 11.5 14.5583 11.5H11.1916C9.86658 11.5 9.33325 12 9.33325 13.25V15.5834C9.33325 16.8334 9.86658 17.3334 11.1916 17.3334H14.5583C15.8833 17.3334 16.4166 16.8334 16.4166 15.5834Z" fill="white"/>
<path d="M7.66658 4.75002V2.41669C7.66658 1.16669 7.13325 0.666687 5.80825 0.666687H2.44159C1.11659 0.666687 0.583252 1.16669 0.583252 2.41669V4.75002C0.583252 6.00002 1.11659 6.50002 2.44159 6.50002H5.80825C7.13325 6.50002 7.66658 6.00002 7.66658 4.75002Z" fill="white"/>
</svg>
