<svg width="20" height="20" viewBox="0 0 20 20" fill="none" xmlns="http://www.w3.org/2000/svg">
<path d="M10 5.625C10.4945 5.625 10.9778 5.47838 11.3889 5.20368C11.8 4.92897 12.1205 4.53852 12.3097 4.08171C12.4989 3.62489 12.5484 3.12223 12.452 2.63728C12.3555 2.15232 12.1174 1.70687 11.7678 1.35723C11.4181 1.0076 10.9727 0.769501 10.4877 0.673038C10.0028 0.576575 9.50011 0.626083 9.04329 0.815302C8.58648 1.00452 8.19603 1.32495 7.92133 1.73608C7.64662 2.1472 7.5 2.63055 7.5 3.125C7.50074 3.78781 7.76438 4.42327 8.23306 4.89195C8.70174 5.36063 9.33719 5.62426 10 5.625ZM10 1.875C10.2472 1.875 10.4889 1.94831 10.6945 2.08566C10.9 2.22302 11.0602 2.41824 11.1548 2.64665C11.2495 2.87505 11.2742 3.12639 11.226 3.36886C11.1778 3.61134 11.0587 3.83407 10.8839 4.00888C10.7091 4.1837 10.4863 4.30275 10.2439 4.35098C10.0014 4.39921 9.75005 4.37446 9.52165 4.27985C9.29324 4.18524 9.09801 4.02503 8.96066 3.81946C8.82331 3.6139 8.75 3.37223 8.75 3.125C8.75037 2.79359 8.88219 2.47587 9.11653 2.24153C9.35087 2.00719 9.66859 1.87537 10 1.875Z" fill="black"/>
<path d="M10 14.375C9.50555 14.375 9.0222 14.5216 8.61108 14.7963C8.19995 15.071 7.87952 15.4615 7.6903 15.9183C7.50108 16.3751 7.45157 16.8778 7.54804 17.3627C7.6445 17.8477 7.8826 18.2931 8.23223 18.6428C8.58187 18.9924 9.02732 19.2305 9.51228 19.327C9.99723 19.4234 10.4999 19.3739 10.9567 19.1847C11.4135 18.9955 11.804 18.675 12.0787 18.2639C12.3534 17.8528 12.5 17.3695 12.5 16.875C12.4993 16.2122 12.2356 15.5767 11.7669 15.1081C11.2983 14.6394 10.6628 14.3757 10 14.375ZM10 18.125C9.75277 18.125 9.5111 18.0517 9.30554 17.9143C9.09998 17.777 8.93976 17.5818 8.84515 17.3534C8.75054 17.1249 8.72579 16.8736 8.77402 16.6311C8.82225 16.3887 8.9413 16.1659 9.11612 15.9911C9.29093 15.8163 9.51366 15.6972 9.75614 15.649C9.99861 15.6008 10.2499 15.6255 10.4784 15.7202C10.7068 15.8148 10.902 15.975 11.0393 16.1805C11.1767 16.3861 11.25 16.6278 11.25 16.875C11.2496 17.2064 11.1178 17.5241 10.8835 17.7585C10.6491 17.9928 10.3314 18.1246 10 18.125Z" fill="black"/>
<path d="M10 7.5C9.50555 7.5 9.0222 7.64662 8.61108 7.92133C8.19995 8.19603 7.87952 8.58648 7.6903 9.04329C7.50108 9.50011 7.45157 10.0028 7.54804 10.4877C7.6445 10.9727 7.8826 11.4181 8.23223 11.7678C8.58187 12.1174 9.02732 12.3555 9.51228 12.452C9.99723 12.5484 10.4999 12.4989 10.9567 12.3097C11.4135 12.1205 11.804 11.8 12.0787 11.3889C12.3534 10.9778 12.5 10.4945 12.5 10C12.4993 9.33719 12.2356 8.70174 11.7669 8.23306C11.2983 7.76438 10.6628 7.50074 10 7.5ZM10 11.25C9.75277 11.25 9.5111 11.1767 9.30554 11.0393C9.09998 10.902 8.93976 10.7068 8.84515 10.4784C8.75054 10.2499 8.72579 9.99861 8.77402 9.75614C8.82225 9.51366 8.9413 9.29093 9.11612 9.11612C9.29093 8.9413 9.51366 8.82225 9.75614 8.77402C9.99861 8.72579 10.2499 8.75054 10.4784 8.84515C10.7068 8.93976 10.902 9.09998 11.0393 9.30554C11.1767 9.5111 11.25 9.75277 11.25 10C11.2496 10.3314 11.1178 10.6491 10.8835 10.8835C10.6491 11.1178 10.3314 11.2496 10 11.25Z" fill="black"/>
</svg>
